<?xml version="1.0" standalone="no"?><!DOCTYPE svg PUBLIC "-//W3C//DTD SVG 1.1//EN" "http://www.w3.org/Graphics/SVG/1.1/DTD/svg11.dtd"><svg t="1595212519093" class="icon" viewBox="0 0 1024 1024" version="1.1" xmlns="http://www.w3.org/2000/svg" p-id="3307" xmlns:xlink="http://www.w3.org/1999/xlink" width="200" height="200"><defs><style type="text/css"></style></defs><path d="M259.1 792.1c3.2 4.6 6.4 9 9.7 13.4 50.2 66.2 109.6 102.6 167.3 102.6 22.3 0 44.7-5.5 66.7-16.2l12.2-6 12.6 5.1c25.1 10.1 49.9 15.3 73.9 15.3 16.7 0 32.9-2.5 48.4-7.2 218.9-320.9 48.8-595.2 48.8-595.2-51.2-21.9-113.5-34.1-185.2-36.1-4 0-8 0.2-11.7 0.2 0 2-0.1 3.8-0.2 5.8 1.3 15.1 3.8 30.3 7.6 45.6 0.2 0.9 0.5 1.9 0.7 2.8 0.1 0.5 0.2 1.1 0.4 1.6v0.5c0.3 0.9 0.6 1.9 0.9 2.8 0 0.1 0.1 0.2 0.1 0.3 0.1 0.1 0.1 0.1 0.1 0.2 0-0.2-0.1-0.3-0.1-0.5 0.1 0.2 0.1 0.4 0.2 0.5v0.1c0.1 0.3 0.2 0.6 0.2 0.8 0.1 0.2 0.1 0.4 0.2 0.6 0.2 0.6 0.4 1.2 0.5 1.7 0.2 0.6 0.5 1.3 0.7 2 0.2 0.7 0.7 1.3 0.7 2s-0.1 0-0.1 0c0.2 0.5 0.2 1 0.4 1.6 1.5 4.6 3.1 9.4 4.8 14.1 0.2 0.6 0.4 1.3 0.6 2 0.3 1.1 0.3 2.4 0.3 3.4h0.1c0.3 0 0.5 0 0.8-0.1 0.5 0 1-0.1 1.6-0.1 0.8-0.1 1.6-0.1 2.3-0.2 11.6-1.3 23-3.9 34.1-7.8 0.2-0.1 0.4-0.2 0.7-0.3 0.6-0.2 1.5-0.4 1.5-0.6h0.5c0.7-0.3 1.5-0.5 2.2-0.8 0 0 0.1-0.1 0.2-0.1 2.3-0.9 4.6-1.9 6.8-2.9 0.2-0.1 0.3-0.1 0.5-0.2 0.3-0.2 0.7-0.3 1-0.5 0.1-0.1 0.3-0.1 0.4-0.2l0.6-0.3c0.1 0 0.1 0 0.2-0.1 1-0.5 2.1-1 3.1-1.5l0.6-0.3c0.1 0 0.1-0.1 0.2-0.1l1.2-0.6c4.5-2.3 9-4.9 13.4-7.8 2.9-1.9 5.8-3.8 8.6-5.9 1.9-1.4 3.8-2.8 5.6-4.3 3.7-3 7.4-6.1 11-9.4 3.9-3.6 9.2-4.7 13.9-3.5l0.9 0.3c0.4 0.1 0.8 0.3 1.3 0.5 1.9 0.8 3.6 2 5.1 3.6 5.6 6.1 5.2 15.6-0.9 21.2-37.8 34.8-82.1 52.5-130.3 52.5-17.9 0-36.3-2.5-55.2-7.4-51.4-13.5-87.4-40.7-88.9-41.9-6.6-5-7.8-14.5-2.8-21.1 1.8-2.4 4.2-4.2 6.8-5.1-8.6-2.7-17.2-5.7-25.6-10.3l-2.8 0.2c-35.1 15.9-65.3 37.1-89.6 63.1-51.5 55.2-75.5 131.1-69.5 218.9 3.2 29.8 10.2 60.5 20.3 90.7 0.6 1.7 0.8 3.4 0.8 5 0 3.1-0.9 6-2.5 8.5 1.8 6.1 5.7 17.9 12.3 33.2 5 0.7 9.6 3.8 11.9 8.6 2 4.2 4.1 8.3 6.2 12.4 2.6 5 2.2 10.6-0.5 15.1 5.1 9.3 11 19.1 17.6 29.1 5.4-0.2 10.5 2.2 13.6 6.7z m251.3-468.8c-0.1-0.4-0.2-0.7-0.3-1.1 0.1 0.5 0.3 1.1 0.4 1.6 0-0.2-0.1-0.4-0.1-0.5zM650.1 899.1c87.5-26.4 154.7-121.9 185.7-227.6-6.1 18.5-14.2 39.9-24.9 64.6-49.5 114.1-156.4 161.2-160.8 163zM825.5 410.6c22.3 40.2 30.5 95.6 31.4 108.6-1.9-39.2-12.5-76.1-31.4-108.6z" fill="#F72B35" p-id="3308"></path><path d="M511.5 327.5c0-0.1-0.1-0.1-0.2-0.2 0 0.1 0.1 0.2 0.2 0.2zM577 339.9s0.1 0 0.1-0.1c0 0.1 0 0.1-0.1 0.1-0.1 0.1-0.3 0.1-0.4 0.2 0.2 0 0.3-0.1 0.4-0.2zM578.2 339.4c-0.1 0-0.2 0.1-0.3 0.2 0.1-0.1 0.1-0.2 0.3-0.2-0.1 0 0 0 0 0zM576 340.4l0.6-0.3c-0.5 0.3-1 0.5-1.6 0.8 0.4-0.1 0.7-0.3 1-0.5zM536.4 353.8c0.8-0.2 1.6-0.3 2.3-0.5 0.7-0.1 1.5-0.3 2.2-0.5l2.4-0.6c1.5-0.4 3.1-0.8 4.6-1.2 0.8-0.2 1.5-0.4 2.3-0.6 0.8-0.2 1.5-0.4 2.3-0.7 0.8-0.2 1.5-0.5 2.3-0.7 0.8-0.2 1.5-0.5 2.2-0.8 0.3-0.1 0.5-0.2 0.8-0.3-8.5 2.9-17.2 5.1-25.9 6.5 0.4 0 0.8-0.1 1.2-0.2 1.1 0 2.2-0.2 3.3-0.4zM526.5 355.3h0.4-0.4c-0.6 0.1-1.1 0.1-1.7 0.2 0.3 0 0.5 0 0.8-0.1 0.3 0 0.6 0 0.9-0.1zM384.6 315.8c9.5 6.5 38.4 24.9 75.8 34.5 9.7 2.5 19.2 4.2 28.5 5.2-5.6-16.2-9.9-32.4-12.9-48.7-26.2 12.5-58.5 15.7-91.4 9zM514.4 336.9c1 3.1 2 6.3 3.1 9.4-1.1-3.3-2.2-6.5-3.2-9.6v0.1l0.1 0.1zM511.7 328.7h0.2c0-0.1-0.1-0.3-0.1-0.4 0-0.1-0.1-0.2-0.1-0.3 0 0.2-0.1 0.4 0 0.7zM561.6 346.7s-0.1 0 0 0zM569.3 343.6c0.3-0.1 0.6-0.3 0.9-0.4h0.1c-1.9 0.9-3.9 1.7-5.8 2.5 0.5-0.2 1.1-0.4 1.6-0.6 1-0.6 2.1-1 3.2-1.5z" fill="#F72B35" p-id="3309"></path><path d="M467 239h0.2-0.2zM471 274.9s0.2-2.2 0.3-5.9l-0.3-0.1v-0.5c0-1.6 0-3.1-0.1-4.7 0-1.5-0.1-3.1-0.1-4.7-0.1-1.1-0.2-2.1-0.3-3.2-0.1-0.8-0.2-1.6-0.3-2.5-0.7-4.6-1.7-9.3-3.2-14l-0.1-0.3v-0.2l0.1 0.1v-0.3c0 0.1 0.2 0.3 0.2 0.4-0.1-1-0.1-0.7-0.2-1v-0.2c0-0.1 0-0.2-0.1-0.3 0-0.2-0.1-0.3-0.1-0.5 0-0.1 0-0.1-0.1-0.2 0-0.1-0.1-0.2-0.1-0.4-0.2-0.5-0.3-1-0.5-1.4-0.3-0.9-0.7-1.7-1-2.7-0.2-0.5-0.4-1.2-0.6-1.8-0.1-0.2-0.2-0.4-0.2-0.6-0.6-1.4-1.2-2.9-1.8-4.3-0.7-1.4-1.3-2.9-2-4.3-0.7-1.5-1.5-3-2.3-4.5-0.8-1.5-1.7-3-2.5-4.4-0.6-1-1.2-1.9-1.8-2.9-1.5-2.3-3-4.6-4.7-6.8-0.6-0.9-1.3-1.7-1.9-2.6-2.1-2.7-4.2-5.4-6.5-7.9-2.3-2.6-4.7-5.1-7.1-7.6-8.7-8.6-18.5-16.4-29.2-23-24.7-15.2-51.6-23.2-78-23.2-20.3 0-38.9 5-53.5 14.2-1 9.7-0.1 19.9 2.4 30.3 22.8 44.2 76.3 103.6 195.6 92z" fill="#B4E84B" p-id="3310"></path><path d="M828.7 361.1C765.3 283.7 656.5 241 514 237h-12.8c1.5-26.9 7.1-53.5 16.9-79.6 17.5-46.9 42.6-74.9 43.1-75.4 5.6-6.1 5.2-15.6-0.9-21.2-6.1-5.6-15.6-5.2-21.2 0.9-1.2 1.3-28.8 31.7-48.6 83.8-5.6 14.8-10 29.9-13.3 45.2-13.9-20.9-33.2-39.9-57.3-54.6-61-37.5-132.6-36.1-174.7-0.4-11.8 49 12.9 107 63.7 145.4-56.1 28.9-98.6 70.5-126.3 123.8-27.3 52.5-38.7 113.2-34 180.6 3.4 32.2 10.8 65.4 21.8 98 2.6 7.8 10.8 12.2 18.7 10.1 3.9-1 7-3.4 9-6.5 1.6-2.5 2.5-5.4 2.5-8.5 0-1.7-0.3-3.3-0.8-5-10.2-30.2-17.1-61-20.3-90.7-6-87.8 18-163.7 69.5-218.9 24.3-26 54.4-47.2 89.6-63.1 0.6-0.3 1.1-0.5 1.7-0.8 0.4 0.2 0.7 0.4 1.1 0.6 8.4 4.6 17 7.6 25.6 10.3-2.6 1-5 2.7-6.8 5.1-5 6.6-3.8 16 2.8 21.1 1.5 1.1 37.5 28.4 88.9 41.9 18.8 4.9 37.3 7.4 55.2 7.4 48.2 0 92.5-17.7 130.3-52.5 6.1-5.6 6.5-15.1 0.9-21.2-1.5-1.6-3.2-2.8-5.1-3.6-0.4-0.2-0.8-0.3-1.3-0.5l-0.9-0.3c-4.8-1.2-10-0.1-13.9 3.5-3.6 3.3-7.3 6.5-11 9.4-1.9 1.5-3.8 2.9-5.6 4.3-2.8 2.1-5.7 4-8.6 5.9-4.4 2.8-8.9 5.4-13.4 7.8l-1.2 0.6c-0.1 0-0.1 0.1-0.2 0.1 0 0 0.1 0 0.1-0.1 0 0-0.1 0-0.1 0.1-0.1 0.1-0.3 0.1-0.4 0.2l-0.6 0.3c-0.3 0.2-0.7 0.3-1 0.5 0.5-0.3 1.1-0.5 1.6-0.8 0.1-0.1 0.3-0.1 0.4-0.2l-0.6 0.3c-1 0.5-2 1-3.1 1.5 0 0-0.1 0-0.2 0.1l-0.6 0.3c-0.1 0.1-0.3 0.1-0.4 0.2-0.3 0.2-0.7 0.3-1 0.5-0.2 0.1-0.3 0.1-0.5 0.2-2.3 1-4.5 2-6.8 2.9-0.1 0-0.1 0-0.2 0.1-0.8 0.3-1.5 0.5-2.2 0.8h0-0.5c0 0.2-0.9 0.4-1.5 0.6-0.3 0.1-0.5 0.2-0.7 0.3-11.1 3.9-22.6 6.6-34.1 7.8-0.8 0.1-1.6 0.2-2.3 0.2-0.5 0-1 0.1-1.6 0.1-0.3 0-0.5 0-0.8 0.1h-0.1c0-1-0.1-2.3-0.3-3.4-0.1-0.7-0.3-1.3-0.6-2-1.7-4.7-3.3-9.5-4.8-14.1-0.1-0.5-0.2-1-0.4-1.6h0.1c0-0.7-0.5-1.3-0.7-2-0.2-0.7-0.5-1.3-0.7-2-0.2-0.6-0.4-1.2-0.5-1.7-0.1-0.2-0.1-0.4-0.2-0.6-0.1-0.3-0.2-0.6-0.2-0.8v-0.1c-0.1-0.2-0.1-0.4-0.2-0.5 0 0.2 0.1 0.3 0.1 0.5 0-0.1-0.1-0.1-0.1-0.2s-0.1-0.1-0.2-0.2l0.2 0.2c0-0.1-0.1-0.2-0.1-0.3-0.3-1-0.6-1.9-0.9-2.8-0.1-0.2 0-0.4 0-0.5-0.1-0.5-0.2-1.1-0.4-1.6-0.3-0.9-0.5-1.9-0.7-2.8-3.8-15.2-6.4-30.5-7.6-45.6 0.1-1.9 0.2-3.8 0.2-5.8 3.7 0 7.7-0.2 11.7-0.2 71.7 2 134 14.2 185.2 36.1 59.9 19.9 115.5 80.1 126.3 105.9 0.1 0.3 0.3 0.5 0.4 0.8C844.4 443.1 855 480 857 519.2v0.3c0.9 12.5 0.3 37-1.8 46.8-0.9 8.2 3.2 36.8-19.4 105.1-31 105.8-98.2 201.2-185.7 227.6-0.1 0-0.1 0-0.1 0.1-15.5 4.7-31.7 7.2-48.4 7.2-24 0-48.8-5.1-73.9-15.3l-12.6-5.1-12.2 6c-21.9 10.8-44.4 16.2-66.7 16.2-57.7 0-117.1-36.5-167.3-102.6-3.3-4.4-6.5-8.8-9.7-13.4-3.1-4.5-8.2-6.9-13.4-6.6-2 0.1-4 0.5-5.9 1.4-8.7 4.1-11.6 15-6.1 22.9 32 45.9 70.1 82.1 109.6 104 27.4 15.2 55.6 23.6 83.7 25.1 3 0.2 6.1 0.2 9.1 0.2 27.1 0 54-6.5 80.2-19.3 34.9 14.1 69.7 19.7 103.3 16.7 31.3-2.8 61.7-13.1 90.4-30.6 46.5-28.4 87.7-75.1 119.2-135.2 29.4-56.1 48.8-121.8 54.6-185 14.2-84.1-5.3-163.8-55.2-224.6zM383.8 285v-0.3l0.6-0.4-0.3-0.1-0.5-0.1h-0.1l1.2 0.2v-0.2l-1.7-0.2c-1.8-0.5-3.5-0.8-5.3-1.4 1.2 0.4 2.5 0.8 3.7 1.1-0.1 0-0.2 0-0.3-0.1h-0.1c-0.2-0.1-0.4-0.1-0.7-0.2-0.9-0.2-1.8-0.5-2.6-0.7-1.8-0.5-3.5-1.1-5.3-1.7-1.7-0.6-3.5-1.2-5.2-1.9-1.7-0.7-3.5-1.4-5.2-2.1-6.9-2.9-13.6-6.4-20.2-10.3l-0.2-0.1-0.2 0.1c-0.1 0-0.2 0.1-0.3 0.1-0.3-0.2-0.7-0.4-1-0.6-24.5-15.1-44.4-36.3-56.1-59.7-3.9-7.7-6.8-15.6-8.7-23.4-2.6-10.4-3.4-20.6-2.4-30.3 14.5-9.2 33.1-14.2 53.5-14.2 26.4 0 53.4 8 78 23.2 10.7 6.6 20.6 14.4 29.2 23 2.5 2.5 4.9 5 7.1 7.6 2.3 2.6 4.4 5.2 6.5 7.9 0.6 0.8 1.3 1.7 1.9 2.6 1.6 2.2 3.2 4.5 4.7 6.8 0.6 1 1.2 1.9 1.8 2.9 0.9 1.5 1.7 2.9 2.5 4.4 0.8 1.5 1.6 3 2.3 4.5 0.7 1.4 1.4 2.9 2 4.3 0.6 1.4 1.3 2.9 1.8 4.3 0.1 0.2 0.2 0.4 0.2 0.6 0.2 0.6 0.4 1.3 0.6 1.8 0.4 1 0.7 1.8 1 2.7 0.2 0.5 0.3 0.9 0.5 1.4 0 0.1 0.1 0.2 0.1 0.4 0 0.1 0 0.1 0.1 0.2 0 0.2 0.1 0.3 0.1 0.5 0 0.1 0 0.1 0.1 0.2v0.3c0.1 0.3 0.1 0 0.2 1h-0.1v-0.1l-0.2-0.1v0.2l0.1 0.3c1.5 4.7 2.5 9.4 3.2 14 0.1 0.8 0.2 1.6 0.3 2.5 0.1 1.1 0.2 2.1 0.3 3.2 0 1.6 0.1 3.1 0.1 4.7 0 1.5 0.1 3.1 0.1 4.7v0.5l0.3 0.1h0.2c0.1 2 0.2 2.6 0.3 3.8 0 0.3 0.2 0.6 0.2 0.8 0 0.3 0.2 0.6 0.2 0.8 0 0.2-0.3 0.3-0.3 0.5-0.9 0.6-1.8 1.1-2.8 1.6 0.9-0.5 1.7-1 2.6-1.6v-0.6 0.5c-3.5 2.2-7.3 4.2-11.2 5.9-0.3 0.1-0.6 0.3-0.9 0.4-0.8 0.3-1.6 0.7-2.4 1-0.1 0-0.2 0.1-0.3 0.1-0.9 0.3-1.8 0.7-2.7 1-0.1 0-0.2 0.1-0.2 0.1-0.2 0.1-0.4 0.1-0.7 0.2-0.8 0.3-1.6 0.5-2.5 0.8-0.3 0.1-0.5 0.2-0.8 0.2-0.7 0.2-1.5 0.4-2.2 0.6-0.3 0.1-0.5 0.2-0.8 0.2-1 0.3-1.9 0.5-2.9 0.7-0.3 0.1-0.5 0.1-0.8 0.2-0.4 0.1-0.8 0.2-1.3 0.3l-0.1-0.1c-0.8 0.2-1.7 0.4-2.5 0.4-0.2 0.1-0.5 0.3-0.7 0.4-1.4 0.2-2.5 0.4-3.7 0.6h-0.7c-0.9 0-1.7 0.3-2.6 0.4-0.8 0.1-1.7 0.2-2.5 0.3h-0.3c-1.3 0.1-2.6 0.2-3.8 0.3-2.2 0.1-4.5 0.2-6.7 0.2h-1.9c-0.6 0-1.2-0.1-1.9-0.1h-0.5H412.6h-1.4-0.7c-0.6 0-1-0.1-1.4-0.1h-0.3c-4-0.3-7.9-0.7-11.9-1.4h-0.2c-1.4-0.2-2.7-0.5-4.1-0.7h-0.2c-1.3-0.3-2.7-0.5-4-0.8h-0.5c-1.4-0.5-2.8-1-4.1-1z m52.7 2.7h-0.1c0.1 0.1 0.1 0 0.1 0z m-15.9 1.5h-3.5 3.5z m39.8 61c-37.4-9.6-66.3-27.9-75.8-34.5 32.9 6.8 65.2 3.6 91.4-9 3 16.3 7.3 32.5 12.9 48.7-9.3-0.9-18.8-2.7-28.5-5.2z m117.8-10.8s-0.1 0 0 0c-0.1 0.1-0.2 0.1-0.3 0.2 0.1-0.1 0.2-0.2 0.3-0.2z m-7.9 3.8s-0.1 0 0 0c-0.4 0.2-0.6 0.3-0.9 0.4-1.1 0.5-2.2 1-3.3 1.4-0.5 0.2-1 0.4-1.6 0.6 1.9-0.8 3.8-1.6 5.8-2.4z m-8.7 3.5c-0.1 0 0 0 0 0z m-3.8 1.4c-0.3 0.1-0.5 0.2-0.8 0.3-0.8 0.3-1.5 0.5-2.2 0.8-0.8 0.3-1.5 0.5-2.3 0.7-0.8 0.2-1.5 0.5-2.3 0.7-0.8 0.2-1.5 0.4-2.3 0.6-1.5 0.4-3.1 0.8-4.6 1.2l-2.4 0.6c-0.7 0.2-1.4 0.3-2.2 0.5-0.8 0.2-1.6 0.3-2.3 0.5l-3.3 0.6c-0.4 0.1-0.8 0.1-1.2 0.2 8.7-1.6 17.4-3.8 25.9-6.7z m-31.3 7.2h0.4-0.4c-0.3 0-0.6 0.1-0.9 0.1-0.2 0-0.5 0.1-0.8 0.1 0.6 0 1.2-0.1 1.7-0.2z m-9-9c-1.1-3.1-2.1-6.3-3.1-9.4 0 0 0-0.1-0.1-0.2v-0.1c1 3.2 2.1 6.5 3.2 9.7z m-5.8-18.4c0 0.1 0.1 0.2 0.1 0.3 0 0.1 0.1 0.3 0.1 0.4h-0.2c-0.1-0.2 0-0.4 0-0.7z" fill="" p-id="3311"></path><path d="M467 238.9l0.2 0.1c0-0.1-0.2-0.2-0.2-0.4v0.3zM471 274.9c-0.4 0.3-0.9 0.6-1.4 1 0.5-0.3 1-0.6 1.4-1zM228.6 741.3c-2.1-4.1-4.2-8.3-6.2-12.4-2.3-4.8-6.8-7.9-11.9-8.6-2-0.3-4-0.2-6 0.4-7.1 1.9-11.6 8.3-11.6 15 0 2.3 0.5 4.5 1.5 6.7 2.1 4.4 4.3 8.8 6.5 13.1 3.8 7.4 12.9 10.5 20.4 6.9 2.9-1.4 5.2-3.5 6.7-6.1 2.7-4.4 3.1-10.1 0.6-15zM510.4 323.3c0.1 0.2 0.1 0.4 0.2 0.5-0.1-0.5-0.3-1.1-0.4-1.6 0 0.3 0.1 0.7 0.2 1.1z" fill="" p-id="3312"></path><path d="M649.9 899.1h0.1c4.4-1.8 111.4-48.9 160.8-163.1 10.7-24.7 18.8-46.1 24.9-64.6 22.7-68.3 18.6-96.9 19.4-105.1 2.1-9.8 2.7-34.3 1.8-46.8v-0.3c-1-13-9.2-68.4-31.4-108.6-0.1-0.3-0.3-0.5-0.4-0.8-10.7-25.8-66.4-86-126.3-105.9 0 0 170.1 274.3-48.9 595.2z" fill="#D61E39" p-id="3313"></path></svg>