<?xml version="1.0" standalone="no"?><!DOCTYPE svg PUBLIC "-//W3C//DTD SVG 1.1//EN" "http://www.w3.org/Graphics/SVG/1.1/DTD/svg11.dtd"><svg t="1595226037693" class="icon" viewBox="0 0 1137 1024" version="1.1" xmlns="http://www.w3.org/2000/svg" p-id="4565" xmlns:xlink="http://www.w3.org/1999/xlink" width="222.0703125" height="200"><defs><style type="text/css"></style></defs><path d="M828.529778 187.050667C817.607111 150.186667 870.172444 68.266667 870.172444 68.266667l-65.080888-28.672C807.367111 99.896889 750.933333 171.804444 750.933333 171.804444c-51.2 61.895111-113.777778 227.555556-250.311111 298.552889-207.075556 107.406222-505.173333-51.655111-420.067555 108.999111s321.991111 204.8 529.294222 96.938667 306.289778-324.266667 221.184-484.920889z" fill="#F7DE72" p-id="4566"></path><path d="M925.923556 219.136c-27.306667-26.851556-20.707556-125.155556-20.707556-125.155556l-60.984889 1.365334a180.679111 180.679111 0 0 1 9.329778 100.352c-43.690667 45.511111-27.306667 263.054222-146.545778 392.305778-157.696 170.894222-492.657778 122.197333-357.262222 244.622222s373.191111 83.057778 530.887111-87.836445 174.762667-402.090667 45.283556-525.653333z" fill="#F4D34D" p-id="4567"></path><path d="M1006.933333 259.413333c-19.569778-19.797333-19.569778-77.596444-17.976889-107.633777a323.584 323.584 0 0 0 39.822223 6.826666c13.425778-1.365333 49.379556-4.778667 55.068444-29.582222 2.730667-11.605333-9.329778-58.254222-21.162667-63.943111S766.862222 25.713778 750.933333 35.043556s-22.755556 43.690667-14.563555 53.475555c5.688889 6.144 111.957333 32.312889 194.787555 50.744889a332.686222 332.686222 0 0 1 1.820445 112.412444c-33.905778 53.703111 19.569778 263.736889-74.865778 409.6-125.155556 195.242667-463.758222 204.8-308.792889 302.193778s382.065778 17.749333 507.448889-177.720889 102.172444-428.032-49.834667-526.336z" fill="#EFC822" p-id="4568"></path><path d="M89.429333 528.839111c3.413333-10.012444 15.701333-15.246222 21.390223-3.868444s5.461333 25.713778-7.054223 31.402666c-8.419556 3.640889-21.162667-7.964444-14.336-27.534222zM341.333333 793.941333c-4.551111-9.557333 0-22.755556 12.515556-17.976889s22.755556 14.563556 17.066667 27.306667c-3.640889 8.647111-20.935111 9.329778-29.582223-9.329778zM537.941333 926.378667c-6.144-9.784889-2.275556-22.755556 11.377778-20.935111 10.012444 2.048 25.713778 12.970667 22.755556 27.534222-3.185778 9.557333-22.072889 12.515556-34.133334-6.599111z" fill="#E5A923" p-id="4569"></path><path d="M252.586667 572.302222c1.592889-7.964444 188.416 20.707556 289.905777-44.145778 118.101333-75.320889 172.942222-207.303111 179.313778-204.8s-66.218667 167.025778-184.32 231.651556S250.311111 580.266667 252.586667 572.302222zM474.225778 795.306667c0-8.192 174.307556-45.511111 257.137778-132.437334 96.256-101.717333 124.017778-227.555556 130.616888-227.555555s-29.809778 156.330667-129.024 254.862222c-95.800889 94.663111-258.503111 113.322667-258.730666 105.130667z" fill="#FFFFFF" p-id="4570"></path><path d="M972.344889 245.532444a45.511111 45.511111 0 0 1-13.880889-34.133333 580.039111 580.039111 0 0 1 0-58.936889l33.223111 6.826667c14.336-1.365333 57.571556-5.688889 64.853333-38.456889 3.185778-14.108444-8.419556-68.266667-27.306666-76.686222C1027.185778 42.780444 731.591111 0 707.242667 14.336a59.847111 59.847111 0 0 0-22.755556 41.415111 35.953778 35.953778 0 0 0 6.144 29.582222 402.773333 402.773333 0 0 0 96.256 29.582223 109.226667 109.226667 0 0 0-12.515555 68.266666v2.275556l1.137777 2.730666 1.820445 4.096a254.862222 254.862222 0 0 1 28.672 136.533334c-7.054222 111.274667-77.824 223.004444-189.553778 299.235555a11.377778 11.377778 0 0 0 12.743111 18.887111c117.418667-80.099556 191.829333-198.428444 199.338667-316.529777A277.390222 277.390222 0 0 0 798.264889 182.044444v-2.503111L796.444444 176.128a95.118222 95.118222 0 0 1 13.198223-55.751111l41.642666 9.329778c1.365333 47.104 9.557333 78.506667 24.576 93.297777A273.066667 273.066667 0 0 1 955.733333 408.234667a11.377778 11.377778 0 0 0 11.377778 10.695111 11.377778 11.377778 0 0 0 10.695111-12.060445 295.822222 295.822222 0 0 0-88.519111-200.248889 124.017778 124.017778 0 0 1-17.521778-71.907555l61.895111 12.970667a626.915556 626.915556 0 0 0 0 65.536 63.488 63.488 0 0 0 24.348445 51.427555c145.408 93.980444 165.660444 323.584 45.511111 511.772445s-341.333333 267.832889-491.747556 174.08c-25.941333-16.156444-32.995556-27.079111-34.133333-33.450667a12.060444 12.060444 0 0 1 0-7.736889h22.755556a480.369778 480.369778 0 0 0 343.381333-162.474667 521.102222 521.102222 0 0 0 101.717333-159.288889 11.377778 11.377778 0 1 0-21.162666-8.419555 499.029333 499.029333 0 0 1-97.393778 152.234667c-153.144889 165.888-384.113778 204.8-514.730667 87.153777-19.569778-17.749333-28.899556-32.312889-26.851555-42.097777 3.640889-17.066667 45.511111-30.037333 58.254222-34.360889a10.922667 10.922667 0 0 0 2.730667-1.592889A524.743111 524.743111 0 0 0 572.074667 682.666667a11.377778 11.377778 0 1 0-10.467556-20.252445C360.220444 766.179556 129.706667 724.764444 47.786667 568.888889c-15.928889-30.264889-15.018667-43.008-11.377778-48.696889 10.24-15.928889 62.122667-12.060444 117.191111-8.192 88.291556 6.371556 209.123556 15.018667 309.475556-36.864s162.247111-155.192889 207.303111-230.513778a624.64 624.64 0 0 1 45.511111-70.997333 11.377778 11.377778 0 0 0-16.839111-14.336 637.155556 637.155556 0 0 0-48.241778 73.728c-43.690667 73.045333-103.537778 172.942222-198.200889 221.866667s-211.854222 40.504889-297.415111 34.360888c-69.859556-5.006222-120.149333-8.647111-137.898667 18.432-10.467556 15.928889-7.054222 38.684444 10.24 71.68 49.834667 94.208 149.959111 149.504 266.012445 159.288889A52.565333 52.565333 0 0 0 265.557333 773.688889c-4.096 18.887111 6.599111 39.139556 33.905778 63.715555a288.312889 288.312889 0 0 0 157.696 70.542223 34.133333 34.133333 0 0 0 0 14.563555c3.413333 15.928889 17.521778 31.175111 45.511111 48.014222a287.175111 287.175111 0 0 0 154.055111 43.008C788.707556 1012.849778 932.977778 930.702222 1024 788.707556c127.658667-198.656 104.448-442.368-51.655111-543.175112zM707.242667 55.068444a38.229333 38.229333 0 0 1 11.150222-20.935111c26.168889-5.233778 281.031111 22.755556 300.828444 29.582223a108.316444 108.316444 0 0 1 15.473778 51.427555c-3.868444 16.839111-34.816 19.797333-45.511111 20.935111-18.659556 0-266.012444-56.888889-282.851556-66.218666a25.713778 25.713778 0 0 1 0.910223-14.791112z" fill="#604D42" p-id="4571"></path><path d="M954.140444 534.528h2.730667a11.377778 11.377778 0 0 0 11.150222-8.647111A418.247111 418.247111 0 0 0 978.488889 455.111111a11.377778 11.377778 0 0 0-22.755556-1.592889 395.036444 395.036444 0 0 1-10.467555 68.266667 11.377778 11.377778 0 0 0 8.874666 12.743111z" fill="#604D42" p-id="4572"></path></svg>